<?xml version="1.0" encoding="UTF-8" standalone="no"?>
<svg
   sodipodi:docname="compass dial.svg"
   id="svg4079"
   xml:space="preserve"
   viewBox="0 0 566.9291 793.70074"
   height="280mm"
   width="200mm"
   version="1.1"
   inkscape:version="1.2.2 (b0a84865, 2022-12-01)"
   inkscape:export-filename="JackSparrowCompassCuts-DIAL2.pdf"
   inkscape:export-xdpi="133"
   inkscape:export-ydpi="133"
   xmlns:inkscape="http://www.inkscape.org/namespaces/inkscape"
   xmlns:sodipodi="http://sodipodi.sourceforge.net/DTD/sodipodi-0.dtd"
   xmlns="http://www.w3.org/2000/svg"
   xmlns:svg="http://www.w3.org/2000/svg"><defs
   id="defs4083" /><sodipodi:namedview
   id="namedview4081"
   pagecolor="#ffffff"
   bordercolor="#000000"
   borderopacity="0.25"
   inkscape:showpageshadow="2"
   inkscape:pageopacity="0.0"
   inkscape:pagecheckerboard="0"
   inkscape:deskcolor="#d1d1d1"
   inkscape:document-units="mm"
   showgrid="false"
   inkscape:zoom="7.6057907"
   inkscape:cx="376.2265"
   inkscape:cy="67.645827"
   inkscape:window-width="1728"
   inkscape:window-height="1051"
   inkscape:window-x="1920"
   inkscape:window-y="38"
   inkscape:window-maximized="0"
   inkscape:current-layer="g4049" /> <style
   id="style3198"><![CDATA[ text { font-style: italic; font-family: Helvetica, Arial, Verdana, sans-serif;}]]></style><g
   stroke="#000000"
   fill-opacity="0"
   fill="#ffffff"
   transform="matrix(0.60671163,0,0,0.60645253,248.88087,78.747773)"
   id="g4049"
   style="stroke-width:0.5;stroke-dasharray:none"
   inkscape:export-filename="g4049.png"
   inkscape:export-xdpi="133"
   inkscape:export-ydpi="133"><circle
     r="129.62"
     fill="#f5f5dc"
     fill-opacity="1"
     id="circle3871"
     cx="0"
     cy="0"
     style="fill:#a47e2f;fill-opacity:1;stroke-width:0.5;stroke-dasharray:none;stroke:none" /><circle
     r="127.02"
     fill="#f5f5dc"
     fill-opacity="1"
     id="circle3873"
     cx="0"
     cy="0"
     style="fill:#f4f4e2;fill-opacity:1;stroke-width:0;stroke-dasharray:none" /><text
     x="0"
     y="-120.52"
     fill-opacity="1"
     text-anchor="middle"
     stroke="#ff0000"
     stroke-width="0"
     style="font-style:normal;font-variant:normal;font-weight:200;font-stretch:normal;font-size:6px;font-family:Raleway;-inkscape-font-specification:'Raleway, Ultra-Light';font-variant-ligatures:normal;font-variant-caps:normal;font-variant-numeric:normal;font-variant-east-asian:normal;fill:#ff0000;stroke-width:0.5;stroke-dasharray:none"
     id="text3875">0 . 0</text><text
     x="20.93"
     y="-118.69"
     transform="rotate(10,20.93,-118.69)"
     fill-opacity="1"
     text-anchor="middle"
     stroke="#ff0000"
     stroke-width="0"
     style="font-style:normal;font-variant:normal;font-weight:200;font-stretch:normal;font-size:6px;font-family:Raleway;-inkscape-font-specification:'Raleway, Ultra-Light';font-variant-ligatures:normal;font-variant-caps:normal;font-variant-numeric:normal;font-variant-east-asian:normal;fill:#ff0000;stroke-width:0.5;stroke-dasharray:none"
     id="text3877">10</text><text
     x="41.220001"
     y="-113.26"
     transform="rotate(20,41.22,-113.26)"
     fill-opacity="1"
     text-anchor="middle"
     stroke="#ff0000"
     stroke-width="0"
     style="font-style:normal;font-variant:normal;font-weight:200;font-stretch:normal;font-size:6px;font-family:Raleway;-inkscape-font-specification:'Raleway, Ultra-Light';font-variant-ligatures:normal;font-variant-caps:normal;font-variant-numeric:normal;font-variant-east-asian:normal;fill:#ff0000;stroke-width:0.5;stroke-dasharray:none"
     id="text3879">20</text><text
     x="60.259998"
     y="-104.38"
     transform="rotate(30,60.26,-104.38)"
     fill-opacity="1"
     text-anchor="middle"
     stroke="#ff0000"
     stroke-width="0"
     style="font-style:normal;font-variant:normal;font-weight:200;font-stretch:normal;font-size:6px;font-family:Raleway;-inkscape-font-specification:'Raleway, Ultra-Light';font-variant-ligatures:normal;font-variant-caps:normal;font-variant-numeric:normal;font-variant-east-asian:normal;fill:#ff0000;stroke-width:0.5;stroke-dasharray:none"
     id="text3881">30</text><text
     x="77.470001"
     y="-92.330002"
     transform="rotate(40,77.47,-92.33)"
     fill-opacity="1"
     text-anchor="middle"
     stroke="#ff0000"
     stroke-width="0"
     style="font-style:normal;font-variant:normal;font-weight:200;font-stretch:normal;font-size:6px;font-family:Raleway;-inkscape-font-specification:'Raleway, Ultra-Light';font-variant-ligatures:normal;font-variant-caps:normal;font-variant-numeric:normal;font-variant-east-asian:normal;fill:#ff0000;stroke-width:0.5;stroke-dasharray:none"
     id="text3883">40</text><text
     x="92.330002"
     y="-77.470001"
     transform="rotate(50,92.33,-77.47)"
     fill-opacity="1"
     text-anchor="middle"
     stroke="#ff0000"
     stroke-width="0"
     style="font-style:normal;font-variant:normal;font-weight:200;font-stretch:normal;font-size:6px;font-family:Raleway;-inkscape-font-specification:'Raleway, Ultra-Light';font-variant-ligatures:normal;font-variant-caps:normal;font-variant-numeric:normal;font-variant-east-asian:normal;fill:#ff0000;stroke-width:0.5;stroke-dasharray:none"
     id="text3885">50</text><text
     x="104.38"
     y="-60.259998"
     transform="rotate(60,104.38,-60.26)"
     fill-opacity="1"
     text-anchor="middle"
     stroke="#ff0000"
     stroke-width="0"
     style="font-style:normal;font-variant:normal;font-weight:200;font-stretch:normal;font-size:6px;font-family:Raleway;-inkscape-font-specification:'Raleway, Ultra-Light';font-variant-ligatures:normal;font-variant-caps:normal;font-variant-numeric:normal;font-variant-east-asian:normal;fill:#ff0000;stroke-width:0.5;stroke-dasharray:none"
     id="text3887">60</text><text
     x="113.26"
     y="-41.220001"
     transform="rotate(70,113.26,-41.22)"
     fill-opacity="1"
     text-anchor="middle"
     stroke="#ff0000"
     stroke-width="0"
     style="font-style:normal;font-variant:normal;font-weight:200;font-stretch:normal;font-size:6px;font-family:Raleway;-inkscape-font-specification:'Raleway, Ultra-Light';font-variant-ligatures:normal;font-variant-caps:normal;font-variant-numeric:normal;font-variant-east-asian:normal;fill:#ff0000;stroke-width:0.5;stroke-dasharray:none"
     id="text3889">70</text><text
     x="118.69"
     y="-20.93"
     transform="rotate(80,118.69,-20.93)"
     fill-opacity="1"
     text-anchor="middle"
     stroke="#ff0000"
     stroke-width="0"
     style="font-style:normal;font-variant:normal;font-weight:200;font-stretch:normal;font-size:6px;font-family:Raleway;-inkscape-font-specification:'Raleway, Ultra-Light';font-variant-ligatures:normal;font-variant-caps:normal;font-variant-numeric:normal;font-variant-east-asian:normal;fill:#ff0000;stroke-width:0.5;stroke-dasharray:none"
     id="text3891">80</text><text
     x="120.52"
     y="0"
     transform="rotate(90,120.52,0)"
     fill-opacity="1"
     text-anchor="middle"
     stroke="#ff0000"
     stroke-width="0"
     style="font-style:normal;font-variant:normal;font-weight:200;font-stretch:normal;font-size:6px;font-family:Raleway;-inkscape-font-specification:'Raleway, Ultra-Light';font-variant-ligatures:normal;font-variant-caps:normal;font-variant-numeric:normal;font-variant-east-asian:normal;fill:#ff0000;stroke-width:0.5;stroke-dasharray:none"
     id="text3893">90</text><text
     x="118.69"
     y="20.93"
     transform="rotate(100,118.69,20.93)"
     fill-opacity="1"
     text-anchor="middle"
     stroke="#ff0000"
     stroke-width="0"
     style="font-style:normal;font-variant:normal;font-weight:200;font-stretch:normal;font-size:6px;font-family:Raleway;-inkscape-font-specification:'Raleway, Ultra-Light';font-variant-ligatures:normal;font-variant-caps:normal;font-variant-numeric:normal;font-variant-east-asian:normal;fill:#ff0000;stroke-width:0.5;stroke-dasharray:none"
     id="text3895">100</text><text
     x="113.26"
     y="41.220001"
     transform="rotate(110,113.26,41.22)"
     fill-opacity="1"
     text-anchor="middle"
     stroke="#ff0000"
     stroke-width="0"
     style="font-style:normal;font-variant:normal;font-weight:200;font-stretch:normal;font-size:6px;font-family:Raleway;-inkscape-font-specification:'Raleway, Ultra-Light';font-variant-ligatures:normal;font-variant-caps:normal;font-variant-numeric:normal;font-variant-east-asian:normal;fill:#ff0000;stroke-width:0.5;stroke-dasharray:none"
     id="text3897">110</text><text
     x="104.38"
     y="60.259998"
     transform="rotate(120,104.38,60.26)"
     fill-opacity="1"
     text-anchor="middle"
     stroke="#ff0000"
     stroke-width="0"
     style="font-style:normal;font-variant:normal;font-weight:200;font-stretch:normal;font-size:6px;font-family:Raleway;-inkscape-font-specification:'Raleway, Ultra-Light';font-variant-ligatures:normal;font-variant-caps:normal;font-variant-numeric:normal;font-variant-east-asian:normal;fill:#ff0000;stroke-width:0.5;stroke-dasharray:none"
     id="text3899">120</text><text
     x="92.330002"
     y="77.470001"
     transform="rotate(130,92.33,77.47)"
     fill-opacity="1"
     text-anchor="middle"
     stroke="#ff0000"
     stroke-width="0"
     style="font-style:normal;font-variant:normal;font-weight:200;font-stretch:normal;font-size:6px;font-family:Raleway;-inkscape-font-specification:'Raleway, Ultra-Light';font-variant-ligatures:normal;font-variant-caps:normal;font-variant-numeric:normal;font-variant-east-asian:normal;fill:#ff0000;stroke-width:0.5;stroke-dasharray:none"
     id="text3901">130</text><text
     x="77.470001"
     y="92.330002"
     transform="rotate(140,77.47,92.33)"
     fill-opacity="1"
     text-anchor="middle"
     stroke="#ff0000"
     stroke-width="0"
     style="font-style:normal;font-variant:normal;font-weight:200;font-stretch:normal;font-size:6px;font-family:Raleway;-inkscape-font-specification:'Raleway, Ultra-Light';font-variant-ligatures:normal;font-variant-caps:normal;font-variant-numeric:normal;font-variant-east-asian:normal;fill:#ff0000;stroke-width:0.5;stroke-dasharray:none"
     id="text3903">140</text><text
     x="60.259998"
     y="104.38"
     transform="rotate(150,60.26,104.38)"
     fill-opacity="1"
     text-anchor="middle"
     stroke="#ff0000"
     stroke-width="0"
     style="font-style:normal;font-variant:normal;font-weight:200;font-stretch:normal;font-size:6px;font-family:Raleway;-inkscape-font-specification:'Raleway, Ultra-Light';font-variant-ligatures:normal;font-variant-caps:normal;font-variant-numeric:normal;font-variant-east-asian:normal;fill:#ff0000;stroke-width:0.5;stroke-dasharray:none"
     id="text3905">150</text><text
     x="41.220001"
     y="113.26"
     transform="rotate(160,41.22,113.26)"
     fill-opacity="1"
     text-anchor="middle"
     stroke="#ff0000"
     stroke-width="0"
     style="font-style:normal;font-variant:normal;font-weight:200;font-stretch:normal;font-size:6px;font-family:Raleway;-inkscape-font-specification:'Raleway, Ultra-Light';font-variant-ligatures:normal;font-variant-caps:normal;font-variant-numeric:normal;font-variant-east-asian:normal;fill:#ff0000;stroke-width:0.5;stroke-dasharray:none"
     id="text3907">160</text><text
     x="20.93"
     y="118.69"
     transform="rotate(170,20.93,118.69)"
     fill-opacity="1"
     text-anchor="middle"
     stroke="#ff0000"
     stroke-width="0"
     style="font-style:normal;font-variant:normal;font-weight:200;font-stretch:normal;font-size:6px;font-family:Raleway;-inkscape-font-specification:'Raleway, Ultra-Light';font-variant-ligatures:normal;font-variant-caps:normal;font-variant-numeric:normal;font-variant-east-asian:normal;fill:#ff0000;stroke-width:0.5;stroke-dasharray:none"
     id="text3909">170</text><text
     x="0"
     y="120.52"
     transform="rotate(180,0,120.52)"
     fill-opacity="1"
     text-anchor="middle"
     stroke="#ff0000"
     stroke-width="0"
     style="font-style:normal;font-variant:normal;font-weight:200;font-stretch:normal;font-size:6px;font-family:Raleway;-inkscape-font-specification:'Raleway, Ultra-Light';font-variant-ligatures:normal;font-variant-caps:normal;font-variant-numeric:normal;font-variant-east-asian:normal;fill:#ff0000;stroke-width:0.5;stroke-dasharray:none"
     id="text3911">180</text><text
     x="-20.93"
     y="118.69"
     transform="rotate(-170,-20.93,118.69)"
     fill-opacity="1"
     text-anchor="middle"
     stroke="#ff0000"
     stroke-width="0"
     style="font-style:normal;font-variant:normal;font-weight:200;font-stretch:normal;font-size:6px;font-family:Raleway;-inkscape-font-specification:'Raleway, Ultra-Light';font-variant-ligatures:normal;font-variant-caps:normal;font-variant-numeric:normal;font-variant-east-asian:normal;fill:#ff0000;stroke-width:0.5;stroke-dasharray:none"
     id="text3913">190</text><text
     x="-41.220001"
     y="113.26"
     transform="rotate(-160,-41.22,113.26)"
     fill-opacity="1"
     text-anchor="middle"
     stroke="#ff0000"
     stroke-width="0"
     style="font-style:normal;font-variant:normal;font-weight:200;font-stretch:normal;font-size:6px;font-family:Raleway;-inkscape-font-specification:'Raleway, Ultra-Light';font-variant-ligatures:normal;font-variant-caps:normal;font-variant-numeric:normal;font-variant-east-asian:normal;fill:#ff0000;stroke-width:0.5;stroke-dasharray:none"
     id="text3915">200</text><text
     x="-60.259998"
     y="104.38"
     transform="rotate(-150,-60.26,104.38)"
     fill-opacity="1"
     text-anchor="middle"
     stroke="#ff0000"
     stroke-width="0"
     style="font-style:normal;font-variant:normal;font-weight:200;font-stretch:normal;font-size:6px;font-family:Raleway;-inkscape-font-specification:'Raleway, Ultra-Light';font-variant-ligatures:normal;font-variant-caps:normal;font-variant-numeric:normal;font-variant-east-asian:normal;fill:#ff0000;stroke-width:0.5;stroke-dasharray:none"
     id="text3917">210</text><text
     x="-77.470001"
     y="92.330002"
     transform="rotate(-140,-77.47,92.33)"
     fill-opacity="1"
     text-anchor="middle"
     stroke="#ff0000"
     stroke-width="0"
     style="font-style:normal;font-variant:normal;font-weight:200;font-stretch:normal;font-size:6px;font-family:Raleway;-inkscape-font-specification:'Raleway, Ultra-Light';font-variant-ligatures:normal;font-variant-caps:normal;font-variant-numeric:normal;font-variant-east-asian:normal;fill:#ff0000;stroke-width:0.5;stroke-dasharray:none"
     id="text3919">220</text><text
     x="-92.330002"
     y="77.470001"
     transform="rotate(-130,-92.33,77.47)"
     fill-opacity="1"
     text-anchor="middle"
     stroke="#ff0000"
     stroke-width="0"
     style="font-style:normal;font-variant:normal;font-weight:200;font-stretch:normal;font-size:6px;font-family:Raleway;-inkscape-font-specification:'Raleway, Ultra-Light';font-variant-ligatures:normal;font-variant-caps:normal;font-variant-numeric:normal;font-variant-east-asian:normal;fill:#ff0000;stroke-width:0.5;stroke-dasharray:none"
     id="text3921">230</text><text
     x="-104.38"
     y="60.259998"
     transform="rotate(-120,-104.38,60.26)"
     fill-opacity="1"
     text-anchor="middle"
     stroke="#ff0000"
     stroke-width="0"
     style="font-style:normal;font-variant:normal;font-weight:200;font-stretch:normal;font-size:6px;font-family:Raleway;-inkscape-font-specification:'Raleway, Ultra-Light';font-variant-ligatures:normal;font-variant-caps:normal;font-variant-numeric:normal;font-variant-east-asian:normal;fill:#ff0000;stroke-width:0.5;stroke-dasharray:none"
     id="text3923">240</text><text
     x="-113.26"
     y="41.220001"
     transform="rotate(-110,-113.26,41.22)"
     fill-opacity="1"
     text-anchor="middle"
     stroke="#ff0000"
     stroke-width="0"
     style="font-style:normal;font-variant:normal;font-weight:200;font-stretch:normal;font-size:6px;font-family:Raleway;-inkscape-font-specification:'Raleway, Ultra-Light';font-variant-ligatures:normal;font-variant-caps:normal;font-variant-numeric:normal;font-variant-east-asian:normal;fill:#ff0000;stroke-width:0.5;stroke-dasharray:none"
     id="text3925">250</text><text
     x="-118.69"
     y="20.93"
     transform="rotate(-100,-118.69,20.93)"
     fill-opacity="1"
     text-anchor="middle"
     stroke="#ff0000"
     stroke-width="0"
     style="font-style:normal;font-variant:normal;font-weight:200;font-stretch:normal;font-size:6px;font-family:Raleway;-inkscape-font-specification:'Raleway, Ultra-Light';font-variant-ligatures:normal;font-variant-caps:normal;font-variant-numeric:normal;font-variant-east-asian:normal;fill:#ff0000;stroke-width:0.5;stroke-dasharray:none"
     id="text3927">260</text><text
     x="-120.52"
     y="0"
     transform="rotate(-90,-120.52,0)"
     fill-opacity="1"
     text-anchor="middle"
     stroke="#ff0000"
     stroke-width="0"
     style="font-style:normal;font-variant:normal;font-weight:200;font-stretch:normal;font-size:6px;font-family:Raleway;-inkscape-font-specification:'Raleway, Ultra-Light';font-variant-ligatures:normal;font-variant-caps:normal;font-variant-numeric:normal;font-variant-east-asian:normal;fill:#ff0000;stroke-width:0.5;stroke-dasharray:none"
     id="text3929">270</text><text
     x="-118.69"
     y="-20.93"
     transform="rotate(-80,-118.69,-20.93)"
     fill-opacity="1"
     text-anchor="middle"
     stroke="#ff0000"
     stroke-width="0"
     style="font-style:normal;font-variant:normal;font-weight:200;font-stretch:normal;font-size:6px;font-family:Raleway;-inkscape-font-specification:'Raleway, Ultra-Light';font-variant-ligatures:normal;font-variant-caps:normal;font-variant-numeric:normal;font-variant-east-asian:normal;fill:#ff0000;stroke-width:0.5;stroke-dasharray:none"
     id="text3931">280</text><text
     x="-113.26"
     y="-41.220001"
     transform="rotate(-70,-113.26,-41.22)"
     fill-opacity="1"
     text-anchor="middle"
     stroke="#ff0000"
     stroke-width="0"
     style="font-style:normal;font-variant:normal;font-weight:200;font-stretch:normal;font-size:6px;font-family:Raleway;-inkscape-font-specification:'Raleway, Ultra-Light';font-variant-ligatures:normal;font-variant-caps:normal;font-variant-numeric:normal;font-variant-east-asian:normal;fill:#ff0000;stroke-width:0.5;stroke-dasharray:none"
     id="text3933">290</text><text
     x="-104.38"
     y="-60.259998"
     transform="rotate(-60,-104.38,-60.26)"
     fill-opacity="1"
     text-anchor="middle"
     stroke="#ff0000"
     stroke-width="0"
     style="font-style:normal;font-variant:normal;font-weight:200;font-stretch:normal;font-size:6px;font-family:Raleway;-inkscape-font-specification:'Raleway, Ultra-Light';font-variant-ligatures:normal;font-variant-caps:normal;font-variant-numeric:normal;font-variant-east-asian:normal;fill:#ff0000;stroke-width:0.5;stroke-dasharray:none"
     id="text3935">300</text><text
     x="-92.330002"
     y="-77.470001"
     transform="rotate(-50,-92.33,-77.47)"
     fill-opacity="1"
     text-anchor="middle"
     stroke="#ff0000"
     stroke-width="0"
     style="font-style:normal;font-variant:normal;font-weight:200;font-stretch:normal;font-size:6px;font-family:Raleway;-inkscape-font-specification:'Raleway, Ultra-Light';font-variant-ligatures:normal;font-variant-caps:normal;font-variant-numeric:normal;font-variant-east-asian:normal;fill:#ff0000;stroke-width:0.5;stroke-dasharray:none"
     id="text3937">310</text><text
     x="-77.470001"
     y="-92.330002"
     transform="rotate(-40,-77.47,-92.33)"
     fill-opacity="1"
     text-anchor="middle"
     stroke="#ff0000"
     stroke-width="0"
     style="font-style:normal;font-variant:normal;font-weight:200;font-stretch:normal;font-size:6px;font-family:Raleway;-inkscape-font-specification:'Raleway, Ultra-Light';font-variant-ligatures:normal;font-variant-caps:normal;font-variant-numeric:normal;font-variant-east-asian:normal;fill:#ff0000;stroke-width:0.5;stroke-dasharray:none"
     id="text3939">320</text><text
     x="-60.259998"
     y="-104.38"
     transform="rotate(-30,-60.26,-104.38)"
     fill-opacity="1"
     text-anchor="middle"
     stroke="#ff0000"
     stroke-width="0"
     style="font-style:normal;font-variant:normal;font-weight:200;font-stretch:normal;font-size:6px;font-family:Raleway;-inkscape-font-specification:'Raleway, Ultra-Light';font-variant-ligatures:normal;font-variant-caps:normal;font-variant-numeric:normal;font-variant-east-asian:normal;fill:#ff0000;stroke-width:0.5;stroke-dasharray:none"
     id="text3941">330</text><text
     x="-41.220001"
     y="-113.26"
     transform="rotate(-20,-41.22,-113.26)"
     fill-opacity="1"
     text-anchor="middle"
     stroke="#ff0000"
     stroke-width="0"
     style="font-style:normal;font-variant:normal;font-weight:200;font-stretch:normal;font-size:6px;font-family:Raleway;-inkscape-font-specification:'Raleway, Ultra-Light';font-variant-ligatures:normal;font-variant-caps:normal;font-variant-numeric:normal;font-variant-east-asian:normal;fill:#ff0000;stroke-width:0.5;stroke-dasharray:none"
     id="text3943">340</text><text
     x="-20.93"
     y="-118.69"
     transform="rotate(-10,-20.93,-118.69)"
     fill-opacity="1"
     text-anchor="middle"
     stroke="#ff0000"
     stroke-width="0"
     style="font-style:normal;font-variant:normal;font-weight:200;font-stretch:normal;font-size:6px;font-family:Raleway;-inkscape-font-specification:'Raleway, Ultra-Light';font-variant-ligatures:normal;font-variant-caps:normal;font-variant-numeric:normal;font-variant-east-asian:normal;fill:#ff0000;stroke-width:0.5;stroke-dasharray:none"
     id="text3945">350</text><path
     d="m -10.61,-121.23 0.24,2.66 m 20.98,-2.66 -0.24,2.66 m 21.13,1.03 -0.69,2.57 m 20.62,4.68 -1.13,2.42 m 19.5,8.19 -1.53,2.18 m 17.78,11.45 -1.89,1.89 m 15.52,14.36 -2.18,1.53 m 12.79,16.84 -2.42,1.13 m 9.67,18.8 -2.57,0.69 m 6.26,20.2 -2.66,0.24 m 2.66,20.98 -2.66,-0.24 m -1.03,21.13 -2.57,-0.69 m -4.68,20.62 -2.42,-1.13 M 99.68,69.8 97.5,68.27 M 86.05,86.05 84.16,84.16 M 69.8,99.68 68.27,97.5 m -16.84,12.79 -1.13,-2.42 m -18.8,9.67 -0.69,-2.57 m -20.2,6.26 -0.24,-2.66 m -20.98,2.66 0.24,-2.66 m -21.13,-1.03 0.69,-2.57 m -20.62,-4.68 1.13,-2.42 m -19.5,-8.19 1.53,-2.18 m -17.78,-11.45 1.89,-1.89 M -99.68,69.8 -97.5,68.27 m -12.79,-16.84 2.42,-1.13 m -9.67,-18.8 2.57,-0.69 m -6.26,-20.2 2.66,-0.24 m -2.66,-20.98 2.66,0.24 m 1.03,-21.13 2.57,0.69 m 4.68,-20.62 2.42,1.13 m 8.19,-19.5 2.18,1.53 m 11.45,-17.78 1.89,1.89 m 14.36,-15.52 1.53,2.18 m 16.84,-12.79 1.13,2.42 m 18.8,-9.67 0.69,2.57 z"
     stroke="#000000"
     fill-opacity="1"
     id="path3947"
     style="stroke-width:0.5;stroke-dasharray:none" /><circle
     r="119.02"
     fill="#ff0000"
     fill-opacity="1"
     id="circle3949"
     cx="0"
     cy="0"
     style="stroke-width:0;stroke-dasharray:none" /><circle
     r="116.43"
     fill="#f5f5dc"
     fill-opacity="1"
     id="circle3951"
     cx="0"
     cy="0"
     style="stroke-width:0;stroke-dasharray:none;fill:#ffffff;fill-opacity:1" /><path
     d="m -22.71,-114.19 7.58,38.13 M 0,-116.43 v 38.88 m 22.71,-36.64 -7.58,38.13 m 49.56,-20.75 -21.61,32.33 m 39.25,-17.85 -27.5,27.5 m 41.98,-9.86 -32.33,21.61 m 49.71,20.37 -38.13,7.58 M 116.43,0 H 77.55 M 114.19,22.71 76.06,15.13 M 96.81,64.69 64.48,43.08 M 82.33,82.33 54.83,54.83 M 64.69,96.81 43.08,64.48 M 22.71,114.19 15.13,76.06 M 0,116.43 V 77.55 m -22.71,36.64 7.58,-38.13 m -49.56,20.75 21.61,-32.33 m -39.25,17.85 27.5,-27.5 m -41.98,9.86 32.33,-21.61 m -49.71,-20.37 38.13,-7.58 M -116.43,0 h 38.88 m -36.64,-22.71 38.13,7.58 m -20.75,-49.56 32.33,21.61 m -17.85,-39.25 27.5,27.5 m -9.86,-41.98 21.61,32.33 z"
     stroke="#000000"
     fill-opacity="1"
     id="path3953"
     style="stroke-width:0.5;stroke-dasharray:none" /><path
     d="m -44.56,-107.57 10.26,38.02 4.62,-2.09 z"
     fill="#ffd700"
     fill-opacity="1"
     id="path3955"
     style="stroke-width:0.5;stroke-dasharray:none" /><path
     d="m -44.56,-107.57 19.63,34.14 -4.75,1.79 z"
     fill="#0000ff"
     fill-opacity="1"
     id="path3957"
     style="stroke-width:0.5;stroke-dasharray:none" /><path
     d="m 44.56,-107.57 -19.63,34.14 4.75,1.79 z"
     fill="#ffd700"
     fill-opacity="1"
     id="path3959"
     style="stroke-width:0.5;stroke-dasharray:none" /><path
     d="M 44.56,-107.57 34.3,-69.55 29.68,-71.64 Z"
     fill="#0000ff"
     fill-opacity="1"
     id="path3961"
     style="stroke-width:0.5;stroke-dasharray:none" /><path
     d="m 107.57,-44.56 -38.02,10.26 2.09,4.62 z"
     fill="#ffd700"
     fill-opacity="1"
     id="path3963"
     style="stroke-width:0.5;stroke-dasharray:none" /><path
     d="m 107.57,-44.56 -34.14,19.63 -1.79,-4.75 z"
     fill="#0000ff"
     fill-opacity="1"
     id="path3965"
     style="stroke-width:0.5;stroke-dasharray:none" /><path
     d="M 107.57,44.56 73.43,24.93 71.64,29.68 Z"
     fill="#ffd700"
     fill-opacity="1"
     id="path3967"
     style="stroke-width:0.5;stroke-dasharray:none" /><path
     d="M 107.57,44.56 69.55,34.3 71.64,29.68 Z"
     fill="#0000ff"
     fill-opacity="1"
     id="path3969"
     style="stroke-width:0.5;stroke-dasharray:none" /><path
     d="M 44.56,107.57 34.3,69.55 29.68,71.64 Z"
     fill="#ffd700"
     fill-opacity="1"
     id="path3971"
     style="stroke-width:0.5;stroke-dasharray:none" /><path
     d="M 44.56,107.57 24.93,73.43 29.68,71.64 Z"
     fill="#0000ff"
     fill-opacity="1"
     id="path3973"
     style="stroke-width:0.5;stroke-dasharray:none" /><path
     d="m -44.56,107.57 19.63,-34.14 -4.75,-1.79 z"
     fill="#ffd700"
     fill-opacity="1"
     id="path3975"
     style="stroke-width:0.5;stroke-dasharray:none" /><path
     d="m -44.56,107.57 10.26,-38.02 4.62,2.09 z"
     fill="#0000ff"
     fill-opacity="1"
     id="path3977"
     style="stroke-width:0.5;stroke-dasharray:none" /><path
     d="M -107.57,44.56 -69.55,34.3 -71.64,29.68 Z"
     fill="#ffd700"
     fill-opacity="1"
     id="path3979"
     style="stroke-width:0.5;stroke-dasharray:none" /><path
     d="m -107.57,44.56 34.14,-19.63 1.79,4.75 z"
     fill="#0000ff"
     fill-opacity="1"
     id="path3981"
     style="stroke-width:0.5;stroke-dasharray:none" /><path
     d="m -107.57,-44.56 34.14,19.63 1.79,-4.75 z"
     fill="#ffd700"
     fill-opacity="1"
     id="path3983"
     style="stroke-width:0.5;stroke-dasharray:none" /><path
     d="m -107.57,-44.56 38.02,10.26 -2.09,4.62 z"
     fill="#0000ff"
     fill-opacity="1"
     id="path3985"
     style="stroke-width:0.5;stroke-dasharray:none" /><circle
     r="77.550003"
     fill="#f5f5dc"
     fill-opacity="1"
     id="circle3987"
     cx="0"
     cy="0"
     style="fill:#dadaa1;fill-opacity:1;stroke-width:0.2;stroke-dasharray:none" /><circle
     r="74.949997"
     fill="#f5f5dc"
     fill-opacity="1"
     id="circle3989"
     cx="0"
     cy="0"
     style="stroke-width:0.2;stroke-dasharray:none;fill:#ffffff;fill-opacity:1" /><path
     d="m -28.68,-69.25 21.51,51.94 M 28.68,-69.25 7.17,-17.31 M 69.25,-28.68 17.31,-7.17 M 69.25,28.68 17.31,7.17 M 28.68,69.25 7.17,17.31 M -28.68,69.25 -7.17,17.31 M -69.25,28.68 -17.31,7.17 m -51.94,-35.85 51.94,21.51 z"
     stroke="#000000"
     fill-opacity="1"
     id="path3991"
     style="stroke-width:0.5;stroke-dasharray:none" /><g
     transform="matrix(0.22,0,0,0.22,-24.64,-134.10037)"
     stroke="#000000"
     fill="#ff0000"
     fill-opacity="1"
     id="g3997"
     style="stroke-width:2.27273;stroke-dasharray:none"><path
       d="m 111,27 c 0,0 -6,133 -61,164 52,15 52,61 55,106 -4,-41 -22,-73 -59,-69 -45,4 -46,56 -24,65 -42,28 34,47 16,8 -2,-2 13,-5 13,-5 -23,-38 39,-46 39,14 0,26 -12,43 -33,48 0,0 14,-10 -4,-22 -28,-17 -38,41 -5,45 25,2 52,-21 59,-61 -24,109 -69,206 -69,206 66,54 78,74 78,74 l 71,-81 c 0,0 -42,-99 -63,-200 5,39 34,62 59,60 33,-4 19,-63 -9,-46 -18,12 -2,23 -2,23 -23,-4 -32,-22 -32,-48 0,-60 64,-50 40,-14 0,0 15,3 13,5 -20,41 56,16 13,-7 20,-4 27,-63 -18,-67 -36,-4 -57,29 -64,71 4,-42 4,-93 54,-105 -55,-32 -61,-164 -61,-164 -2.00234,-5.76604 -6.08063,-2.136493 -6,0 z"
       id="path3993"
       style="stroke-width:2.27273;stroke-dasharray:none"
       sodipodi:nodetypes="cccccccscccccccccccscccccccc" /><rect
       width="89"
       height="20"
       x="71"
       y="298"
       ry="9"
       rx="10"
       id="rect3995"
       style="stroke-width:2.27273;stroke-dasharray:none" /></g><path
     d="M 116.43,0 16.23,9.37 V -9.37 Z"
     fill="#a52a2a"
     fill-opacity="1"
     id="path3999"
     style="stroke-width:0.5;stroke-dasharray:none" /><g
     transform="matrix(0,0.222,-0.222,0,103.5,-9.99)"
     fill="#fffff0"
     fill-opacity="1"
     id="g4003"
     style="stroke-width:2.25225;stroke-dasharray:none"><path
       d="M 52,1 45,14 38,2 c -1,7 -1,15 -2,23 l 1,2 -1,2 c -1,11 -2,22 -3,34 l 5,8 -6,11 c -1,11 -2,23 -3,35 l 7,12 -10,17 c -2,18 -3,35 -5,52 l 13,22 -18,30 c -2,19 -4,37 -5,55 l 20,34 -26,44 c -1,10 -1,19 -1,27 l 12,7 31,-52 31,51 13,-8 c 0,-8 -1,-16 -1,-24 L 60,339 81,304 C 79,287 78,269 76,251 L 57,220 70,198 C 68,181 67,165 65,148 L 55,130 63,116 C 62,105 61,94 60,83 l -7,-12 5,-9 v 0 C 57,52 56,41 55,31 l -2,-4 2,-3 C 53,16 53,9 52,1 Z m -7,39 5,9 -5,9 -5,-9 z m 0,44 8,15 -8,15 -8,-15 z m 0,62 16,27 -16,27 -16,-27 z m 0,95 22,36 -22,36 -22,-36 z"
       id="path4001"
       style="stroke-width:2.25225;stroke-dasharray:none" /></g><path
     d="M 116.43,0 13.25,13.25 16.23,9.37 Z"
     fill="#0000ff"
     fill-opacity="1"
     id="path4005"
     style="stroke-width:0.5;stroke-dasharray:none" /><path
     d="M 116.43,0 16.23,-9.37 13.25,-13.25 Z"
     fill="#0000ff"
     fill-opacity="1"
     id="path4007"
     style="stroke-width:0.5;stroke-dasharray:none" /><path
     d="M 0,116.43 -9.37,16.23 H 9.37 Z"
     fill="#a52a2a"
     fill-opacity="1"
     id="path4009"
     style="stroke-width:0.5;stroke-dasharray:none" /><g
     transform="matrix(-0.222,0,0,-0.222,9.99,103.5)"
     fill="#fffff0"
     fill-opacity="1"
     id="g4013"
     style="stroke-width:2.25225;stroke-dasharray:none"><path
       d="M 52,1 45,14 38,2 c -1,7 -1,15 -2,23 l 1,2 -1,2 c -1,11 -2,22 -3,34 l 5,8 -6,11 c -1,11 -2,23 -3,35 l 7,12 -10,17 c -2,18 -3,35 -5,52 l 13,22 -18,30 c -2,19 -4,37 -5,55 l 20,34 -26,44 c -1,10 -1,19 -1,27 l 12,7 31,-52 31,51 13,-8 c 0,-8 -1,-16 -1,-24 L 60,339 81,304 C 79,287 78,269 76,251 L 57,220 70,198 C 68,181 67,165 65,148 L 55,130 63,116 C 62,105 61,94 60,83 l -7,-12 5,-9 v 0 C 57,52 56,41 55,31 l -2,-4 2,-3 C 53,16 53,9 52,1 Z m -7,39 5,9 -5,9 -5,-9 z m 0,44 8,15 -8,15 -8,-15 z m 0,62 16,27 -16,27 -16,-27 z m 0,95 22,36 -22,36 -22,-36 z"
       id="path4011"
       style="stroke-width:2.25225;stroke-dasharray:none" /></g><path
     d="M 0,116.43 -13.25,13.25 -9.37,16.23 Z"
     fill="#0000ff"
     fill-opacity="1"
     id="path4015"
     style="stroke-width:0.5;stroke-dasharray:none" /><path
     d="M 0,116.43 9.37,16.23 13.25,13.25 Z"
     fill="#0000ff"
     fill-opacity="1"
     id="path4017"
     style="stroke-width:0.5;stroke-dasharray:none" /><path
     d="m -116.43,0 100.2,-9.37 V 9.37 Z"
     fill="#a52a2a"
     fill-opacity="1"
     id="path4019"
     style="stroke-width:0.5;stroke-dasharray:none" /><g
     transform="matrix(0,-0.222,0.222,0,-103.5,9.99)"
     fill="#fffff0"
     fill-opacity="1"
     id="g4023"
     style="stroke-width:2.25225;stroke-dasharray:none"><path
       d="M 52,1 45,14 38,2 c -1,7 -1,15 -2,23 l 1,2 -1,2 c -1,11 -2,22 -3,34 l 5,8 -6,11 c -1,11 -2,23 -3,35 l 7,12 -10,17 c -2,18 -3,35 -5,52 l 13,22 -18,30 c -2,19 -4,37 -5,55 l 20,34 -26,44 c -1,10 -1,19 -1,27 l 12,7 31,-52 31,51 13,-8 c 0,-8 -1,-16 -1,-24 L 60,339 81,304 C 79,287 78,269 76,251 L 57,220 70,198 C 68,181 67,165 65,148 L 55,130 63,116 C 62,105 61,94 60,83 l -7,-12 5,-9 v 0 C 57,52 56,41 55,31 l -2,-4 2,-3 C 53,16 53,9 52,1 Z m -7,39 5,9 -5,9 -5,-9 z m 0,44 8,15 -8,15 -8,-15 z m 0,62 16,27 -16,27 -16,-27 z m 0,95 22,36 -22,36 -22,-36 z"
       id="path4021"
       style="stroke-width:2.25225;stroke-dasharray:none" /></g><path
     d="m -116.43,0 103.18,-13.25 -2.98,3.88 z"
     fill="#0000ff"
     fill-opacity="1"
     id="path4025"
     style="stroke-width:0.5;stroke-dasharray:none" /><path
     d="m -116.43,0 100.2,9.37 2.98,3.88 z"
     fill="#0000ff"
     fill-opacity="1"
     id="path4027"
     style="stroke-width:0.5;stroke-dasharray:none" /><path
     d=""
     stroke="#000000"
     fill-opacity="1"
     id="path4029"
     style="stroke-width:0.5;stroke-dasharray:none" /><path
     d="m -53,-53 34.9,48.15 4.85,-8.4 z"
     fill="#ffd700"
     fill-opacity="1"
     id="path4031"
     style="stroke-width:0.5;stroke-dasharray:none" /><path
     d="m -53,-53 48.15,34.9 -8.4,4.85 z"
     fill="#0000ff"
     fill-opacity="1"
     id="path4033"
     style="stroke-width:0.5;stroke-dasharray:none" /><path
     d="m 53,-53 -48.15,34.9 8.4,4.85 z"
     fill="#ffd700"
     fill-opacity="1"
     id="path4035"
     style="stroke-width:0.5;stroke-dasharray:none" /><path
     d="m 53,-53 -34.9,48.15 -4.85,-8.4 z"
     fill="#0000ff"
     fill-opacity="1"
     id="path4037"
     style="stroke-width:0.5;stroke-dasharray:none" /><path
     d="M 53,53 18.1,4.85 l -4.85,8.4 z"
     fill="#ffd700"
     fill-opacity="1"
     id="path4039"
     style="stroke-width:0.5;stroke-dasharray:none" /><path
     d="M 53,53 4.85,18.1 l 8.4,-4.85 z"
     fill="#0000ff"
     fill-opacity="1"
     id="path4041"
     style="stroke-width:0.5;stroke-dasharray:none" /><path
     d="m -53,53 48.15,-34.9 -8.4,-4.85 z"
     fill="#ffd700"
     fill-opacity="1"
     id="path4043"
     style="stroke-width:0.5;stroke-dasharray:none" /><path
     d="m -53,53 34.9,-48.15 4.85,8.4 z"
     fill="#0000ff"
     fill-opacity="1"
     id="path4045"
     style="stroke-width:0.5;stroke-dasharray:none" /><circle
     r="18.74"
     fill="#f5f5dc"
     fill-opacity="1"
     id="circle4047"
     cx="0"
     cy="0"
     style="stroke-width:0.5;stroke-dasharray:none" /></g></svg>
